<?xml version="1.0" encoding="UTF-8"?>
<!DOCTYPE svg PUBLIC "-//W3C//DTD SVG 1.1//EN" "http://www.w3.org/Graphics/SVG/1.1/DTD/svg11.dtd">
<svg xmlns="http://www.w3.org/2000/svg" version="1.1" width="612px" height="408px" style="shape-rendering:geometricPrecision; text-rendering:geometricPrecision; image-rendering:optimizeQuality; fill-rule:evenodd; clip-rule:evenodd" xmlns:xlink="http://www.w3.org/1999/xlink">
<g><path style="opacity:1" fill="#36556c" d="M 298.5,112.5 C 298.027,111.094 297.027,110.427 295.5,110.5C 289.732,106.381 287.565,100.715 289,93.5C 289.374,91.5087 290.207,89.842 291.5,88.5C 292.906,88.0269 293.573,87.0269 293.5,85.5C 295.027,85.573 296.027,84.9063 296.5,83.5C 310.59,77.5493 319.257,82.216 322.5,97.5C 319.69,111.224 311.69,116.224 298.5,112.5 Z"/></g>
<g><path style="opacity:0.663" fill="#a9b6c1" d="M 296.5,83.5 C 296.027,84.9063 295.027,85.573 293.5,85.5C 293.973,84.0937 294.973,83.427 296.5,83.5 Z"/></g>
<g><path style="opacity:0.373" fill="#b8c3cb" d="M 293.5,85.5 C 293.573,87.0269 292.906,88.0269 291.5,88.5C 291.427,86.9731 292.094,85.9731 293.5,85.5 Z"/></g>
<g><path style="opacity:1" fill="#32536a" d="M 280.5,102.5 C 280.5,104.5 281.5,105.5 283.5,105.5C 284.5,105.833 285.167,106.5 285.5,107.5C 285.5,109.5 286.5,110.5 288.5,110.5C 289.5,110.833 290.167,111.5 290.5,112.5C 290.833,114.833 292.167,116.167 294.5,116.5C 295.5,116.833 296.167,117.5 296.5,118.5C 296.427,120.027 297.094,121.027 298.5,121.5C 299.622,123.288 299.789,125.288 299,127.5C 293.5,133 288,138.5 282.5,144C 279.833,146 277.167,146 274.5,144C 267.667,137.167 260.833,130.333 254,123.5C 252.286,119.437 252.12,115.437 253.5,111.5C 254.906,111.027 255.573,110.027 255.5,108.5C 258.714,104.12 262.714,100.62 267.5,98C 272.879,96.698 277.212,98.198 280.5,102.5 Z"/></g>
<g><path style="opacity:1" fill="#325269" d="M 344.5,98.5 C 345.539,100.531 347.205,101.864 349.5,102.5C 357.372,107.231 359.872,113.897 357,122.5C 341.66,139.006 325.827,155.006 309.5,170.5C 306.833,170.5 304.167,170.5 301.5,170.5C 294.167,163.833 287.167,156.833 280.5,149.5C 280.5,148.833 280.833,148.5 281.5,148.5C 282.922,148.291 284.255,147.791 285.5,147C 301.035,131.298 316.701,115.798 332.5,100.5C 334.027,100.573 335.027,99.9063 335.5,98.5C 338.396,97.2248 341.396,97.2248 344.5,98.5 Z"/></g>
<g><path style="opacity:0.82" fill="#91a2af" d="M 335.5,98.5 C 335.027,99.9063 334.027,100.573 332.5,100.5C 332.973,99.0937 333.973,98.427 335.5,98.5 Z"/></g>
<g><path style="opacity:0.992" fill="#93a3b0" d="M 344.5,98.5 C 346.754,99.1237 348.421,100.457 349.5,102.5C 347.205,101.864 345.539,100.531 344.5,98.5 Z"/></g>
<g><path style="opacity:0.733" fill="#aab7c1" d="M 280.5,102.5 C 281.833,103.167 282.833,104.167 283.5,105.5C 281.5,105.5 280.5,104.5 280.5,102.5 Z"/></g>
<g><path style="opacity:0.725" fill="#acb9c2" d="M 285.5,107.5 C 286.833,108.167 287.833,109.167 288.5,110.5C 286.5,110.5 285.5,109.5 285.5,107.5 Z"/></g>
<g><path style="opacity:0.431" fill="#acb9c3" d="M 255.5,108.5 C 255.573,110.027 254.906,111.027 253.5,111.5C 253.427,109.973 254.094,108.973 255.5,108.5 Z"/></g>
<g><path style="opacity:0.333" fill="#b4c0c8" d="M 295.5,110.5 C 297.027,110.427 298.027,111.094 298.5,112.5C 296.973,112.573 295.973,111.906 295.5,110.5 Z"/></g>
<g><path style="opacity:0.827" fill="#a2b0bb" d="M 290.5,112.5 C 292.167,113.5 293.5,114.833 294.5,116.5C 292.167,116.167 290.833,114.833 290.5,112.5 Z"/></g>
<g><path style="opacity:0.71" fill="#a4b3bd" d="M 296.5,118.5 C 297.906,118.973 298.573,119.973 298.5,121.5C 297.094,121.027 296.427,120.027 296.5,118.5 Z"/></g>
<g><path style="opacity:1" fill="#2f5068" d="M 252.5,127.5 C 252.427,129.027 253.094,130.027 254.5,130.5C 269.438,144.938 284.272,159.604 299,174.5C 299.755,177.303 299.422,179.97 298,182.5C 291.298,189.369 284.465,196.036 277.5,202.5C 277.028,200.469 276.028,198.802 274.5,197.5C 272.234,193.564 269.234,190.231 265.5,187.5C 263.856,187.19 262.856,186.19 262.5,184.5C 262.167,183.5 261.5,182.833 260.5,182.5C 248.527,171.36 237.027,159.693 226,147.5C 225.163,143.705 225.496,140.039 227,136.5C 230.5,133 234,129.5 237.5,126C 242.847,123.687 247.847,124.187 252.5,127.5 Z"/></g>
<g><path style="opacity:1" fill="#315269" d="M 372.5,126.5 C 372.833,127.5 373.5,128.167 374.5,128.5C 377.5,130.833 380.167,133.5 382.5,136.5C 382.427,138.027 383.094,139.027 384.5,139.5C 385.968,143.37 385.468,147.036 383,150.5C 375.588,158.583 367.588,165.917 359,172.5C 354.775,171.768 351.941,169.435 350.5,165.5C 350.027,164.094 349.027,163.427 347.5,163.5C 346.094,163.027 345.427,162.027 345.5,160.5C 345.027,159.094 344.027,158.427 342.5,158.5C 338.294,156.116 336.961,152.783 338.5,148.5C 340.262,147.738 341.262,146.404 341.5,144.5C 344.5,143.5 346.5,141.5 347.5,138.5C 350.167,137.833 351.833,136.167 352.5,133.5C 355.167,132.833 356.833,131.167 357.5,128.5C 361.039,124.835 365.372,123.668 370.5,125C 371.416,125.278 372.082,125.778 372.5,126.5 Z"/></g>
<g><path style="opacity:0.008" fill="#c8d1d7" d="M 372.5,126.5 C 373.833,126.5 374.5,127.167 374.5,128.5C 373.5,128.167 372.833,127.5 372.5,126.5 Z"/></g>
<g><path style="opacity:0.537" fill="#bdc7cf" d="M 252.5,127.5 C 253.906,127.973 254.573,128.973 254.5,130.5C 253.094,130.027 252.427,129.027 252.5,127.5 Z"/></g>
<g><path style="opacity:0.702" fill="#99a9b5" d="M 357.5,128.5 C 356.833,131.167 355.167,132.833 352.5,133.5C 353.833,131.5 355.5,129.833 357.5,128.5 Z"/></g>
<g><path style="opacity:0.69" fill="#a0afba" d="M 352.5,133.5 C 351.833,136.167 350.167,137.833 347.5,138.5C 348.833,136.5 350.5,134.833 352.5,133.5 Z"/></g>
<g><path style="opacity:0.471" fill="#9fafb9" d="M 382.5,136.5 C 383.906,136.973 384.573,137.973 384.5,139.5C 383.094,139.027 382.427,138.027 382.5,136.5 Z"/></g>
<g><path style="opacity:0.663" fill="#9cabb7" d="M 347.5,138.5 C 346.5,141.5 344.5,143.5 341.5,144.5C 343.167,142.167 345.167,140.167 347.5,138.5 Z"/></g>
<g><path style="opacity:0.718" fill="#a4b3bd" d="M 341.5,144.5 C 341.262,146.404 340.262,147.738 338.5,148.5C 338.738,146.596 339.738,145.262 341.5,144.5 Z"/></g>
<g><path style="opacity:0.231" fill="#e2e7ea" d="M 281.5,148.5 C 280.833,148.5 280.5,148.833 280.5,149.5C 279.711,149.217 279.044,148.717 278.5,148C 279.749,147.26 280.749,147.427 281.5,148.5 Z"/></g>
<g><path style="opacity:0.635" fill="#b5c1c9" d="M 334.5,153.5 C 333.395,154.6 332.062,155.267 330.5,155.5C 331.879,152.927 333.879,151.427 336.5,151C 335.934,151.995 335.267,152.828 334.5,153.5 Z"/></g>
<g><path style="opacity:1" fill="#2e4f67" d="M 334.5,153.5 C 334.833,154.833 335.167,156.167 335.5,157.5C 335.5,159.5 336.5,160.5 338.5,160.5C 339.5,160.833 340.167,161.5 340.5,162.5C 340.5,164.5 341.5,165.5 343.5,165.5C 345.614,168.07 347.947,170.403 350.5,172.5C 350.427,174.027 351.094,175.027 352.5,175.5C 354.027,175.427 355.027,176.094 355.5,177.5C 355.427,179.027 356.094,180.027 357.5,180.5C 358.167,180.833 358.833,181.167 359.5,181.5C 360.08,183.749 361.413,185.415 363.5,186.5C 363.833,186.5 364.167,186.5 364.5,186.5C 365.08,188.749 366.413,190.415 368.5,191.5C 369.167,191.833 369.833,192.167 370.5,192.5C 371.08,194.749 372.413,196.415 374.5,197.5C 375.492,197.328 376.158,197.662 376.5,198.5C 376.738,200.404 377.738,201.738 379.5,202.5C 380.167,202.833 380.833,203.167 381.5,203.5C 381.427,205.027 382.094,206.027 383.5,206.5C 385.966,210.248 386.133,214.248 384,218.5C 380.167,222.333 376.333,226.167 372.5,230C 369.074,231.576 365.74,231.742 362.5,230.5C 362.027,229.094 361.027,228.427 359.5,228.5C 342.295,212.462 325.961,195.629 310.5,178C 310.808,176.541 311.475,175.374 312.5,174.5C 313.906,174.027 314.573,173.027 314.5,171.5C 317.5,170.5 319.5,168.5 320.5,165.5C 323.167,164.833 324.833,163.167 325.5,160.5C 328.167,159.833 329.833,158.167 330.5,155.5C 332.062,155.267 333.395,154.6 334.5,153.5 Z"/></g>
<g><path style="opacity:0.616" fill="#a9b6c0" d="M 330.5,155.5 C 329.833,158.167 328.167,159.833 325.5,160.5C 326.833,158.5 328.5,156.833 330.5,155.5 Z"/></g>
<g><path style="opacity:0.624" fill="#b7c3cb" d="M 335.5,157.5 C 336.833,158.167 337.833,159.167 338.5,160.5C 336.5,160.5 335.5,159.5 335.5,157.5 Z"/></g>
<g><path style="opacity:0.71" fill="#a4b3bd" d="M 342.5,158.5 C 344.027,158.427 345.027,159.094 345.5,160.5C 343.973,160.573 342.973,159.906 342.5,158.5 Z"/></g>
<g><path style="opacity:1" fill="#35556c" d="M 236.5,165.5 C 236.427,167.027 237.094,168.027 238.5,168.5C 243.88,177.145 242.546,184.979 234.5,192C 228.792,195.1 223.125,195.266 217.5,192.5C 216.738,190.738 215.404,189.738 213.5,189.5C 208.944,185.169 207.444,179.836 209,173.5C 209.232,172.263 209.732,171.263 210.5,170.5C 211.906,170.027 212.573,169.027 212.5,167.5C 212.81,165.856 213.81,164.856 215.5,164.5C 217.027,164.573 218.027,163.906 218.5,162.5C 225.158,159.666 231.158,160.666 236.5,165.5 Z"/></g>
<g><path style="opacity:1" fill="#36556c" d="M 397.5,166.5 C 397.427,168.027 398.094,169.027 399.5,169.5C 403.932,178.163 402.265,185.663 394.5,192C 388.275,195.462 382.275,195.295 376.5,191.5C 376.027,190.094 375.027,189.427 373.5,189.5C 366.354,180.475 367.021,171.975 375.5,164C 383.574,159.054 390.907,159.887 397.5,166.5 Z"/></g>
<g><path style="opacity:0.749" fill="#a0afba" d="M 218.5,162.5 C 218.027,163.906 217.027,164.573 215.5,164.5C 215.973,163.094 216.973,162.427 218.5,162.5 Z"/></g>
<g><path style="opacity:0.604" fill="#abb8c2" d="M 325.5,160.5 C 324.833,163.167 323.167,164.833 320.5,165.5C 321.833,163.5 323.5,161.833 325.5,160.5 Z"/></g>
<g><path style="opacity:0.608" fill="#b9c4cc" d="M 340.5,162.5 C 341.833,163.167 342.833,164.167 343.5,165.5C 341.5,165.5 340.5,164.5 340.5,162.5 Z"/></g>
<g><path style="opacity:0.718" fill="#a3b1bc" d="M 347.5,163.5 C 349.027,163.427 350.027,164.094 350.5,165.5C 348.973,165.573 347.973,164.906 347.5,163.5 Z"/></g>
<g><path style="opacity:0.565" fill="#9dadb8" d="M 236.5,165.5 C 237.906,165.973 238.573,166.973 238.5,168.5C 237.094,168.027 236.427,167.027 236.5,165.5 Z"/></g>
<g><path style="opacity:0.533" fill="#9faeb9" d="M 397.5,166.5 C 398.906,166.973 399.573,167.973 399.5,169.5C 398.094,169.027 397.427,168.027 397.5,166.5 Z"/></g>
<g><path style="opacity:0.565" fill="#91a2af" d="M 212.5,167.5 C 212.573,169.027 211.906,170.027 210.5,170.5C 210.427,168.973 211.094,167.973 212.5,167.5 Z"/></g>
<g><path style="opacity:0.58" fill="#a6b4bf" d="M 320.5,165.5 C 319.5,168.5 317.5,170.5 314.5,171.5C 316.167,169.167 318.167,167.167 320.5,165.5 Z"/></g>
<g><path style="opacity:0.992" fill="#889aa8" d="M 301.5,170.5 C 304.167,170.5 306.833,170.5 309.5,170.5C 306.786,172.972 304.119,172.972 301.5,170.5 Z"/></g>
<g><path style="opacity:0.659" fill="#aab7c1" d="M 314.5,171.5 C 314.573,173.027 313.906,174.027 312.5,174.5C 312.427,172.973 313.094,171.973 314.5,171.5 Z"/></g>
<g><path style="opacity:0.698" fill="#a5b4be" d="M 350.5,172.5 C 351.906,172.973 352.573,173.973 352.5,175.5C 351.094,175.027 350.427,174.027 350.5,172.5 Z"/></g>
<g><path style="opacity:0.686" fill="#a7b5bf" d="M 355.5,177.5 C 356.906,177.973 357.573,178.973 357.5,180.5C 356.094,180.027 355.427,179.027 355.5,177.5 Z"/></g>
<g><path style="opacity:0.675" fill="#adbac3" d="M 359.5,181.5 C 361.587,182.585 362.92,184.251 363.5,186.5C 361.413,185.415 360.08,183.749 359.5,181.5 Z"/></g>
<g><path style="opacity:0.004" fill="#c7d0d7" d="M 260.5,182.5 C 261.5,182.833 262.167,183.5 262.5,184.5C 261.167,184.5 260.5,183.833 260.5,182.5 Z"/></g>
<g><path style="opacity:1" fill="#35546b" d="M 269.5,198.5 C 269.738,200.404 270.738,201.738 272.5,202.5C 273.408,204.452 273.241,206.452 272,208.5C 264.433,216.737 256.267,224.237 247.5,231C 244.406,231.652 241.406,231.318 238.5,230C 234.667,226.167 230.833,222.333 227,218.5C 225,214.167 225,209.833 227,205.5C 234.167,198.333 241.333,191.167 248.5,184C 251.303,183.245 253.97,183.578 256.5,185C 261.037,189.369 265.37,193.869 269.5,198.5 Z"/></g>
<g><path style="opacity:1" fill="#2e4f67" d="M 329.5,205.5 C 328.5,206.167 327.5,206.833 326.5,207.5C 310.035,223.465 293.701,239.632 277.5,256C 272.881,259.426 268.548,259.259 264.5,255.5C 263.415,253.413 261.749,252.08 259.5,251.5C 258.833,248.833 257.167,247.167 254.5,246.5C 250.199,239.374 251.532,233.374 258.5,228.5C 260.167,227.5 261.5,226.167 262.5,224.5C 262.833,223.5 263.5,222.833 264.5,222.5C 265.833,221.833 266.833,220.833 267.5,219.5C 267.833,218.5 268.5,217.833 269.5,217.5C 271.167,216.5 272.5,215.167 273.5,213.5C 273.5,212.833 273.833,212.5 274.5,212.5C 276.167,211.5 277.5,210.167 278.5,208.5C 279.833,205.167 282.167,202.833 285.5,201.5C 288.573,199.431 290.906,196.764 292.5,193.5C 296.1,191.57 299.1,188.903 301.5,185.5C 301.611,184.883 301.944,184.383 302.5,184C 304.5,183.333 306.5,183.333 308.5,184C 315.703,191.035 322.703,198.202 329.5,205.5 Z"/></g>
<g><path style="opacity:0.663" fill="#afbcc4" d="M 364.5,186.5 C 366.587,187.585 367.92,189.251 368.5,191.5C 366.413,190.415 365.08,188.749 364.5,186.5 Z"/></g>
<g><path style="opacity:0.004" fill="#c5ced4" d="M 265.5,187.5 C 269.234,190.231 272.234,193.564 274.5,197.5C 270.766,194.769 267.766,191.436 265.5,187.5 Z"/></g>
<g><path style="opacity:0.745" fill="#a2b1bb" d="M 301.5,185.5 C 299.1,188.903 296.1,191.57 292.5,193.5C 294.9,190.097 297.9,187.43 301.5,185.5 Z"/></g>
<g><path style="opacity:0.776" fill="#a5b2bd" d="M 213.5,189.5 C 215.404,189.738 216.738,190.738 217.5,192.5C 215.596,192.262 214.262,191.262 213.5,189.5 Z"/></g>
<g><path style="opacity:0.49" fill="#abb8c2" d="M 373.5,189.5 C 375.027,189.427 376.027,190.094 376.5,191.5C 374.973,191.573 373.973,190.906 373.5,189.5 Z"/></g>
<g><path style="opacity:0.655" fill="#b1bdc6" d="M 370.5,192.5 C 372.587,193.585 373.92,195.251 374.5,197.5C 372.413,196.415 371.08,194.749 370.5,192.5 Z"/></g>
<g><path style="opacity:0.753" fill="#a7b5bf" d="M 269.5,198.5 C 271.262,199.262 272.262,200.596 272.5,202.5C 270.738,201.738 269.738,200.404 269.5,198.5 Z"/></g>
<g><path style="opacity:0.718" fill="#a5b3bd" d="M 292.5,193.5 C 290.906,196.764 288.573,199.431 285.5,201.5C 287.094,198.236 289.427,195.569 292.5,193.5 Z"/></g>
<g><path style="opacity:0.635" fill="#b2bec7" d="M 376.5,198.5 C 378.262,199.262 379.262,200.596 379.5,202.5C 377.738,201.738 376.738,200.404 376.5,198.5 Z"/></g>
<g><path style="opacity:0.247" fill="#adbac3" d="M 274.5,197.5 C 276.028,198.802 277.028,200.469 277.5,202.5C 277.158,203.338 276.492,203.672 275.5,203.5C 275.675,201.379 275.341,199.379 274.5,197.5 Z"/></g>
<g><path style="opacity:0.035" fill="#f4f7f7" d="M 275.5,203.5 C 274.833,204.167 274.833,204.167 275.5,203.5 Z"/></g>
<g><path style="opacity:0.4" fill="#bac5cd" d="M 381.5,203.5 C 382.906,203.973 383.573,204.973 383.5,206.5C 382.094,206.027 381.427,205.027 381.5,203.5 Z"/></g>
<g><path style="opacity:0.525" fill="#bdc8cf" d="M 329.5,205.5 C 330.627,206.122 331.627,206.955 332.5,208C 330.575,207.865 328.575,207.698 326.5,207.5C 327.5,206.833 328.5,206.167 329.5,205.5 Z"/></g>
<g><path style="opacity:0.702" fill="#9aaab6" d="M 278.5,208.5 C 277.5,210.167 276.167,211.5 274.5,212.5C 274.833,210.167 276.167,208.833 278.5,208.5 Z"/></g>
<g><path style="opacity:0.886" fill="#879aa7" d="M 335.5,211.5 C 333.473,211.338 331.473,211.505 329.5,212C 328.529,213.481 327.196,214.315 325.5,214.5C 328.025,209.869 331.358,208.869 335.5,211.5 Z"/></g>
<g><path style="opacity:1" fill="#315168" d="M 335.5,211.5 C 342.5,217.833 349.167,224.5 355.5,231.5C 355.427,233.027 356.094,234.027 357.5,234.5C 358.813,238.177 358.647,241.843 357,245.5C 353.5,249 350,252.5 346.5,256C 341.877,259.37 337.544,259.204 333.5,255.5C 333.027,254.094 332.027,253.427 330.5,253.5C 327.5,248.5 323.5,244.5 318.5,241.5C 317.5,238.5 315.5,236.5 312.5,235.5C 310.298,233.022 310.131,230.355 312,227.5C 316.369,222.963 320.869,218.63 325.5,214.5C 327.196,214.315 328.529,213.481 329.5,212C 331.473,211.505 333.473,211.338 335.5,211.5 Z"/></g>
<g><path style="opacity:0.682" fill="#a2b1bc" d="M 273.5,213.5 C 272.5,215.167 271.167,216.5 269.5,217.5C 269.833,215.167 271.167,213.833 273.5,213.5 Z"/></g>
<g><path style="opacity:0.541" fill="#a9b7c0" d="M 267.5,219.5 C 266.833,220.833 265.833,221.833 264.5,222.5C 264.5,220.5 265.5,219.5 267.5,219.5 Z"/></g>
<g><path style="opacity:0.643" fill="#a7b5bf" d="M 262.5,224.5 C 261.5,226.167 260.167,227.5 258.5,228.5C 258.833,226.167 260.167,224.833 262.5,224.5 Z"/></g>
<g><path style="opacity:0.329" fill="#b2bfc7" d="M 359.5,228.5 C 361.027,228.427 362.027,229.094 362.5,230.5C 360.973,230.573 359.973,229.906 359.5,228.5 Z"/></g>
<g><path style="opacity:0.333" fill="#b0bdc6" d="M 355.5,231.5 C 356.906,231.973 357.573,232.973 357.5,234.5C 356.094,234.027 355.427,233.027 355.5,231.5 Z"/></g>
<g><path style="opacity:0.624" fill="#b5c1c9" d="M 312.5,235.5 C 315.5,236.5 317.5,238.5 318.5,241.5C 316.167,239.833 314.167,237.833 312.5,235.5 Z"/></g>
<g><path style="opacity:0.741" fill="#b0bdc6" d="M 318.5,241.5 C 323.5,244.5 327.5,248.5 330.5,253.5C 326.167,249.833 322.167,245.833 318.5,241.5 Z"/></g>
<g><path style="opacity:1" fill="#35556c" d="M 297.5,272.5 C 297.027,271.094 296.027,270.427 294.5,270.5C 287.376,263.383 286.709,255.716 292.5,247.5C 294.749,246.92 296.415,245.587 297.5,243.5C 311.198,238.65 319.532,243.483 322.5,258C 319.541,272.505 311.207,277.338 297.5,272.5 Z"/></g>
<g><path style="opacity:0.647" fill="#b9c4cc" d="M 254.5,246.5 C 257.167,247.167 258.833,248.833 259.5,251.5C 257.5,250.167 255.833,248.5 254.5,246.5 Z"/></g>
<g><path style="opacity:0.894" fill="#8598a6" d="M 297.5,243.5 C 296.415,245.587 294.749,246.92 292.5,247.5C 293.585,245.413 295.251,244.08 297.5,243.5 Z"/></g>
<g><path style="opacity:0.659" fill="#b4c0c9" d="M 259.5,251.5 C 261.749,252.08 263.415,253.413 264.5,255.5C 262.251,254.92 260.585,253.587 259.5,251.5 Z"/></g>
<g><path style="opacity:0.69" fill="#a5b3be" d="M 330.5,253.5 C 332.027,253.427 333.027,254.094 333.5,255.5C 331.973,255.573 330.973,254.906 330.5,253.5 Z"/></g>
<g><path style="opacity:0.514" fill="#a4b3bd" d="M 294.5,270.5 C 296.027,270.427 297.027,271.094 297.5,272.5C 295.973,272.573 294.973,271.906 294.5,270.5 Z"/></g>
<g><path style="opacity:0.999" fill="#415d73" d="M 169.5,289.5 C 169.173,294.544 169.506,299.544 170.5,304.5C 171.107,304.376 171.44,304.043 171.5,303.5C 172.5,301.167 174.167,299.5 176.5,298.5C 180.167,295.5 183.5,292.167 186.5,288.5C 190.829,287.697 192.329,289.697 191,294.5C 187.227,297.764 184.06,301.43 181.5,305.5C 181.427,307.027 182.094,308.027 183.5,308.5C 184.5,308.833 185.167,309.5 185.5,310.5C 185.738,312.404 186.738,313.738 188.5,314.5C 189.08,316.749 190.413,318.415 192.5,319.5C 194.681,324.493 193.014,326.327 187.5,325C 183.657,320.326 179.657,315.826 175.5,311.5C 171.068,314.585 169.235,318.919 170,324.5C 167.667,325.833 165.333,325.833 163,324.5C 162.333,312.833 162.333,301.167 163,289.5C 165.293,286.866 167.46,286.866 169.5,289.5 Z"/></g>
<g><path style="opacity:0.999" fill="#3a586e" d="M 223.5,288.5 C 224.038,290.117 224.371,291.784 224.5,293.5C 218.588,295.456 212.255,296.123 205.5,295.5C 204.527,297.948 204.194,300.615 204.5,303.5C 209.833,303.5 215.167,303.5 220.5,303.5C 221.88,303.962 222.547,304.962 222.5,306.5C 222.439,308.653 221.439,309.986 219.5,310.5C 214.5,310.5 209.5,310.5 204.5,310.5C 204.5,313.167 204.5,315.833 204.5,318.5C 210.5,318.5 216.5,318.5 222.5,318.5C 222.833,318.5 223.167,318.5 223.5,318.5C 224.15,320.435 224.483,322.435 224.5,324.5C 216.01,325.657 207.343,325.824 198.5,325C 197.346,313.243 197.179,301.409 198,289.5C 198.5,289 199,288.5 199.5,288C 207.677,287.177 215.677,287.344 223.5,288.5 Z"/></g>
<g><path style="opacity:1" fill="#3d5a71" d="M 238.5,292.5 C 239.08,294.749 240.413,296.415 242.5,297.5C 243.488,298.795 244.488,300.128 245.5,301.5C 245.427,303.027 246.094,304.027 247.5,304.5C 249.332,305.718 250.332,305.051 250.5,302.5C 250.833,301.5 251.5,300.833 252.5,300.5C 253.906,300.027 254.573,299.027 254.5,297.5C 256.587,296.415 257.92,294.749 258.5,292.5C 259.906,292.027 260.573,291.027 260.5,289.5C 262.54,286.866 264.707,286.866 267,289.5C 267.667,301.167 267.667,312.833 267,324.5C 264.726,325.811 262.56,325.811 260.5,324.5C 260.831,317.137 260.497,309.803 259.5,302.5C 258.702,302.957 258.369,303.624 258.5,304.5C 256.303,308.238 253.636,311.571 250.5,314.5C 249.127,314.657 247.793,314.49 246.5,314C 245.922,312.583 244.922,311.75 243.5,311.5C 243.446,309.368 242.446,308.035 240.5,307.5C 239.094,307.027 238.427,306.027 238.5,304.5C 238.217,303.711 237.717,303.044 237,302.5C 236.5,309.826 236.334,317.159 236.5,324.5C 234.137,326.002 231.97,325.668 230,323.5C 229.333,312.167 229.333,300.833 230,289.5C 234.165,286.421 236.999,287.421 238.5,292.5 Z"/></g>
<g><path style="opacity:0.999" fill="#3f5c72" d="M 284.5,292.5 C 284.427,294.027 285.094,295.027 286.5,295.5C 287.5,295.833 288.167,296.5 288.5,297.5C 289.08,299.749 290.413,301.415 292.5,302.5C 293.5,302.833 294.167,303.5 294.5,304.5C 294.738,306.404 295.738,307.738 297.5,308.5C 298.5,308.833 299.167,309.5 299.5,310.5C 299.369,311.376 299.702,312.043 300.5,312.5C 301.497,304.862 301.831,297.196 301.5,289.5C 303.54,286.866 305.707,286.866 308,289.5C 308.812,301.213 308.645,312.88 307.5,324.5C 305.579,325.641 303.579,325.808 301.5,325C 296.956,319.96 292.622,314.794 288.5,309.5C 287.864,307.205 286.531,305.539 284.5,304.5C 284.585,303.005 283.919,302.005 282.5,301.5C 281.503,309.138 281.169,316.804 281.5,324.5C 279.44,325.811 277.274,325.811 275,324.5C 274.333,312.833 274.333,301.167 275,289.5C 276.466,287.675 278.299,287.175 280.5,288C 282.041,289.371 283.375,290.871 284.5,292.5 Z"/></g>
<g><path style="opacity:0.999" fill="#435f75" d="M 336.5,295.5 C 336.427,297.027 337.094,298.027 338.5,298.5C 340.293,300.426 341.293,302.759 341.5,305.5C 341.427,307.027 342.094,308.027 343.5,308.5C 345.674,311.515 347.341,314.849 348.5,318.5C 348.5,320.5 348.5,322.5 348.5,324.5C 344.455,326.456 341.789,325.122 340.5,320.5C 333.833,319.167 327.167,319.167 320.5,320.5C 319.437,325.385 316.603,326.719 312,324.5C 311.333,322.833 311.333,321.167 312,319.5C 316.608,309.948 321.441,300.615 326.5,291.5C 327.833,290.833 328.833,289.833 329.5,288.5C 333.839,288.162 336.173,290.495 336.5,295.5 Z M 331.5,301.5 C 332.326,304.485 333.659,307.151 335.5,309.5C 334.306,310.777 332.64,311.444 330.5,311.5C 328.631,311.493 326.964,311.16 325.5,310.5C 327.267,308.062 328.601,305.395 329.5,302.5C 330.167,302.167 330.833,301.833 331.5,301.5 Z"/></g>
<g><path style="opacity:0.999" fill="#3f5c72" d="M 360.5,290.5 C 360.334,295.179 360.501,299.845 361,304.5C 361.717,303.956 362.217,303.289 362.5,302.5C 366.5,297.833 370.833,293.5 375.5,289.5C 376.833,289.167 378.167,288.833 379.5,288.5C 379.833,288.5 380.167,288.5 380.5,288.5C 381.038,290.117 381.371,291.784 381.5,293.5C 378.772,297.737 375.439,301.571 371.5,305C 372.381,305.708 373.047,306.542 373.5,307.5C 373.427,309.027 374.094,310.027 375.5,310.5C 378.78,313.043 381.613,316.043 384,319.5C 385.261,325.08 383.094,326.913 377.5,325C 373.546,320.258 369.713,315.424 366,310.5C 362.049,313.84 360.382,318.173 361,323.5C 358.925,325.648 356.592,325.982 354,324.5C 353.333,312.833 353.333,301.167 354,289.5C 356.696,286.793 358.862,287.126 360.5,290.5 Z"/></g>
<g><path style="opacity:0.839" fill="#9baab6" d="M 379.5,288.5 C 378.167,288.833 376.833,289.167 375.5,289.5C 376.538,287.481 377.872,287.147 379.5,288.5 Z"/></g>
<g><path style="opacity:0.999" fill="#496379" d="M 414.5,288.5 C 414.5,290.5 414.5,292.5 414.5,294.5C 407.745,293.877 401.412,294.544 395.5,296.5C 395.5,298.5 395.5,300.5 395.5,302.5C 400.511,302.334 405.511,302.501 410.5,303C 414.506,306.053 414.173,308.719 409.5,311C 404.845,311.499 400.179,311.666 395.5,311.5C 395.5,313.5 395.5,315.5 395.5,317.5C 401.509,317.334 407.509,317.501 413.5,318C 416.859,320.034 417.192,322.368 414.5,325C 406.167,325.667 397.833,325.667 389.5,325C 389,324.5 388.5,324 388,323.5C 387.189,312.12 387.355,300.787 388.5,289.5C 389.025,288.808 389.692,288.308 390.5,288C 398.579,287.2 406.579,287.367 414.5,288.5 Z"/></g>
<g><path style="opacity:1" fill="#3d5a71" d="M 436.5,313.5 C 433.713,312.523 430.713,312.19 427.5,312.5C 427.5,316.167 427.5,319.833 427.5,323.5C 425.718,325.687 423.552,326.02 421,324.5C 420.333,312.833 420.333,301.167 421,289.5C 421.5,289 422,288.5 422.5,288C 428.833,287.333 435.167,287.333 441.5,288C 449.429,290.686 452.596,296.186 451,304.5C 449.782,307.558 447.949,310.224 445.5,312.5C 447.333,314.833 449.167,317.167 451,319.5C 452.191,325.248 450.024,326.914 444.5,324.5C 441.08,321.305 438.414,317.639 436.5,313.5 Z M 428.5,295.5 C 432.182,295.335 435.848,295.501 439.5,296C 442.693,297.026 444.026,299.192 443.5,302.5C 442.167,303.167 441.167,304.167 440.5,305.5C 436.5,305.5 432.5,305.5 428.5,305.5C 428.5,302.167 428.5,298.833 428.5,295.5 Z"/></g>
<g><path style="opacity:0.396" fill="#a6b3be" d="M 223.5,288.5 C 225.597,289.879 225.93,291.545 224.5,293.5C 224.371,291.784 224.038,290.117 223.5,288.5 Z"/></g>
<g><path style="opacity:0.831" fill="#91a1ae" d="M 260.5,289.5 C 260.573,291.027 259.906,292.027 258.5,292.5C 258.427,290.973 259.094,289.973 260.5,289.5 Z"/></g>
<g><path style="opacity:0.325" fill="#b3bfc7" d="M 329.5,288.5 C 328.833,289.833 327.833,290.833 326.5,291.5C 326.5,289.5 327.5,288.5 329.5,288.5 Z"/></g>
<g><path style="opacity:0.31" fill="#b7c1ca" d="M 380.5,288.5 C 382.597,289.879 382.93,291.545 381.5,293.5C 381.371,291.784 381.038,290.117 380.5,288.5 Z"/></g>
<g><path style="opacity:0.494" fill="#9baab6" d="M 169.5,289.5 C 170.167,294.167 170.833,298.833 171.5,303.5C 171.44,304.043 171.107,304.376 170.5,304.5C 169.506,299.544 169.173,294.544 169.5,289.5 Z"/></g>
<g><path style="opacity:0.587" fill="#8498a6" d="M 301.5,289.5 C 301.831,297.196 301.497,304.862 300.5,312.5C 299.702,312.043 299.369,311.376 299.5,310.5C 300.167,303.5 300.833,296.5 301.5,289.5 Z"/></g>
<g><path style="opacity:0.062" fill="#f1f4f5" d="M 360.5,290.5 C 361.167,294.5 361.833,298.5 362.5,302.5C 362.217,303.289 361.717,303.956 361,304.5C 360.501,299.845 360.334,295.179 360.5,290.5 Z"/></g>
<g><path style="opacity:0.976" fill="#8799a7" d="M 414.5,288.5 C 417.167,290.5 417.167,292.5 414.5,294.5C 414.5,292.5 414.5,290.5 414.5,288.5 Z"/></g>
<g><path style="opacity:0.427" fill="#b2bec7" d="M 284.5,292.5 C 285.906,292.973 286.573,293.973 286.5,295.5C 285.094,295.027 284.427,294.027 284.5,292.5 Z"/></g>
<g><path style="opacity:0.804" fill="#637b8e" d="M 414.5,294.5 C 408.267,295.203 401.934,295.87 395.5,296.5C 401.412,294.544 407.745,293.877 414.5,294.5 Z"/></g>
<g><path style="opacity:0.557" fill="#a6b4be" d="M 238.5,292.5 C 240.587,293.585 241.92,295.251 242.5,297.5C 240.413,296.415 239.08,294.749 238.5,292.5 Z"/></g>
<g><path style="opacity:0.663" fill="#9aa9b5" d="M 258.5,292.5 C 257.92,294.749 256.587,296.415 254.5,297.5C 255.08,295.251 256.413,293.585 258.5,292.5 Z"/></g>
<g><path style="opacity:0.553" fill="#a4b2bc" d="M 186.5,288.5 C 183.5,292.167 180.167,295.5 176.5,298.5C 178.833,294.167 182.167,290.833 186.5,288.5 Z"/></g>
<g><path style="opacity:0.275" fill="#b9c4cc" d="M 336.5,295.5 C 337.906,295.973 338.573,296.973 338.5,298.5C 337.094,298.027 336.427,297.027 336.5,295.5 Z"/></g>
<g><path style="opacity:0.831" fill="#a2b0bb" d="M 288.5,297.5 C 290.587,298.585 291.92,300.251 292.5,302.5C 290.413,301.415 289.08,299.749 288.5,297.5 Z"/></g>
<g><path style="opacity:0.573" fill="#98a7b3" d="M 254.5,297.5 C 254.573,299.027 253.906,300.027 252.5,300.5C 252.427,298.973 253.094,297.973 254.5,297.5 Z"/></g>
<g><path style="opacity:0.114" fill="#dae0e4" d="M 331.5,301.5 C 330.833,301.833 330.167,302.167 329.5,302.5C 329.711,300.576 330.377,300.243 331.5,301.5 Z"/></g>
<g><path style="opacity:0.56" fill="#91a2af" d="M 284.5,304.5 C 283.883,304.389 283.383,304.056 283,303.5C 282.829,310.679 282.329,317.679 281.5,324.5C 281.169,316.804 281.503,309.138 282.5,301.5C 283.919,302.005 284.585,303.005 284.5,304.5 Z"/></g>
<g><path style="opacity:0.141" fill="#e0e5e9" d="M 205.5,295.5 C 205.5,297.833 205.5,300.167 205.5,302.5C 210.695,302.179 215.695,302.513 220.5,303.5C 215.167,303.5 209.833,303.5 204.5,303.5C 204.194,300.615 204.527,297.948 205.5,295.5 Z"/></g>
<g><path style="opacity:0.617" fill="#8598a6" d="M 260.5,324.5 C 259.833,317.833 259.167,311.167 258.5,304.5C 258.369,303.624 258.702,302.957 259.5,302.5C 260.497,309.803 260.831,317.137 260.5,324.5 Z"/></g>
<g><path style="opacity:0.503" fill="#96a6b3" d="M 238.5,304.5 C 237.833,311.167 237.167,317.833 236.5,324.5C 236.334,317.159 236.5,309.826 237,302.5C 237.717,303.044 238.217,303.711 238.5,304.5 Z"/></g>
<g><path style="opacity:0.467" fill="#aab7c1" d="M 245.5,301.5 C 246.906,301.973 247.573,302.973 247.5,304.5C 246.094,304.027 245.427,303.027 245.5,301.5 Z"/></g>
<g><path style="opacity:0.561" fill="#9faeb9" d="M 250.5,302.5 C 250.332,305.051 249.332,305.718 247.5,304.5C 248.5,303.833 249.5,303.167 250.5,302.5 Z"/></g>
<g><path style="opacity:0.584" fill="#aebac3" d="M 443.5,302.5 C 443.5,304.5 442.5,305.5 440.5,305.5C 441.167,304.167 442.167,303.167 443.5,302.5 Z"/></g>
<g><path style="opacity:0.737" fill="#a3b1bc" d="M 294.5,304.5 C 296.262,305.262 297.262,306.596 297.5,308.5C 295.738,307.738 294.738,306.404 294.5,304.5 Z"/></g>
<g><path style="opacity:0.418" fill="#b1bdc6" d="M 428.5,295.5 C 428.5,298.833 428.5,302.167 428.5,305.5C 432.5,305.5 436.5,305.5 440.5,305.5C 436.366,306.485 432.032,306.818 427.5,306.5C 427.185,302.629 427.518,298.962 428.5,295.5 Z"/></g>
<g><path style="opacity:0.671" fill="#aab7c1" d="M 181.5,305.5 C 182.906,305.973 183.573,306.973 183.5,308.5C 182.094,308.027 181.427,307.027 181.5,305.5 Z"/></g>
<g><path style="opacity:0.561" fill="#abb8c2" d="M 284.5,304.5 C 286.531,305.539 287.864,307.205 288.5,309.5C 286.457,308.421 285.124,306.754 284.5,304.5 Z"/></g>
<g><path style="opacity:0.973" fill="#91a2af" d="M 240.5,307.5 C 242.446,308.035 243.446,309.368 243.5,311.5C 242.026,310.564 241.026,309.23 240.5,307.5 Z"/></g>
<g><path style="opacity:0.349" fill="#b1bdc6" d="M 341.5,305.5 C 342.906,305.973 343.573,306.973 343.5,308.5C 342.094,308.027 341.427,307.027 341.5,305.5 Z"/></g>
<g><path style="opacity:0.576" fill="#9aa9b5" d="M 373.5,307.5 C 374.906,307.973 375.573,308.973 375.5,310.5C 374.094,310.027 373.427,309.027 373.5,307.5 Z"/></g>
<g><path style="opacity:0.733" fill="#a4b2bc" d="M 185.5,310.5 C 187.262,311.262 188.262,312.596 188.5,314.5C 186.738,313.738 185.738,312.404 185.5,310.5 Z"/></g>
<g><path style="opacity:0.611" fill="#8396a4" d="M 335.5,309.5 C 336.404,310.209 336.737,311.209 336.5,312.5C 332.445,312.824 328.445,312.491 324.5,311.5C 324.624,310.893 324.957,310.56 325.5,310.5C 326.964,311.16 328.631,311.493 330.5,311.5C 332.64,311.444 334.306,310.777 335.5,309.5 Z"/></g>
<g><path style="opacity:0.144" fill="#d0d7dc" d="M 436.5,313.5 C 433.833,313.5 431.167,313.5 428.5,313.5C 428.813,317.042 428.479,320.375 427.5,323.5C 427.5,319.833 427.5,316.167 427.5,312.5C 430.713,312.19 433.713,312.523 436.5,313.5 Z"/></g>
<g><path style="opacity:0.627" fill="#91a2af" d="M 243.5,311.5 C 244.922,311.75 245.922,312.583 246.5,314C 247.793,314.49 249.127,314.657 250.5,314.5C 247.06,316.334 244.727,315.334 243.5,311.5 Z"/></g>
<g><path style="opacity:0.847" fill="#9dabb7" d="M 188.5,314.5 C 190.587,315.585 191.92,317.251 192.5,319.5C 190.413,318.415 189.08,316.749 188.5,314.5 Z"/></g>
<g><path style="opacity:0.031" fill="#f5f6f8" d="M 219.5,310.5 C 215.03,311.486 210.363,311.819 205.5,311.5C 205.5,313.5 205.5,315.5 205.5,317.5C 211.358,317.178 217.025,317.511 222.5,318.5C 216.5,318.5 210.5,318.5 204.5,318.5C 204.5,315.833 204.5,313.167 204.5,310.5C 209.5,310.5 214.5,310.5 219.5,310.5 Z"/></g>
<g><path style="opacity:0.325" fill="#b6c1ca" d="M 223.5,318.5 C 224.947,319.134 225.613,320.301 225.5,322C 225.472,323.07 225.139,323.903 224.5,324.5C 224.483,322.435 224.15,320.435 223.5,318.5 Z"/></g>
<g><path style="opacity:0.984" fill="#8597a5" d="M 348.5,318.5 C 349.339,319.641 350.006,320.974 350.5,322.5C 350.145,323.522 349.478,324.189 348.5,324.5C 348.5,322.5 348.5,320.5 348.5,318.5 Z"/></g>
</svg>
